<svg width="28" height="30" viewBox="0 0 28 30" fill="none" xmlns="http://www.w3.org/2000/svg">
<path d="M14 17.4167C15.2887 17.4167 16.3334 16.3347 16.3334 15C16.3334 13.6653 15.2887 12.5833 14 12.5833C12.7114 12.5833 11.6667 13.6653 11.6667 15C11.6667 16.3347 12.7114 17.4167 14 17.4167Z" stroke="#9C9C9C" stroke-width="2" stroke-linecap="round" stroke-linejoin="round"/>
<path d="M18.9467 9.87668C19.5975 10.55 20.1138 11.3496 20.4661 12.2297C20.8183 13.1099 20.9997 14.0533 20.9997 15.0061C20.9997 15.9588 20.8183 16.9022 20.4661 17.7824C20.1138 18.6625 19.5975 19.4621 18.9467 20.1354M9.05332 20.1233C8.40249 19.45 7.88618 18.6504 7.53391 17.7703C7.18164 16.8901 7.00032 15.9467 7.00032 14.994C7.00032 14.0412 7.18164 13.0978 7.53391 12.2177C7.88618 11.3375 8.40249 10.5379 9.05332 9.86459M22.2483 6.45709C24.4355 8.72305 25.6642 11.7959 25.6642 15C25.6642 18.2041 24.4355 21.277 22.2483 23.5429M5.75166 23.5429C3.56449 21.277 2.33582 18.2041 2.33582 15C2.33582 11.7959 3.56449 8.72305 5.75166 6.45709" stroke="#9C9C9C" stroke-width="2" stroke-linecap="round" stroke-linejoin="round"/>
</svg>
